<?xml version="1.0" encoding="utf-8"?>
<!-- Generator: Adobe Illustrator 24.1.2, SVG Export Plug-In . SVG Version: 6.00 Build 0)  -->
<svg version="1.1" id="Capa_1" xmlns="http://www.w3.org/2000/svg" xmlns:xlink="http://www.w3.org/1999/xlink" x="0px" y="0px"
	 viewBox="0 0 67 67" style="enable-background:new 0 0 67 67;" xml:space="preserve">
<style type="text/css">
	.st0{fill:url(#SVGID_1_);}
	.st1{fill:url(#SVGID_2_);}
</style>
<g>
	<g>
		
			<linearGradient id="SVGID_1_" gradientUnits="userSpaceOnUse" x1="5.3853" y1="82.4911" x2="35.3585" y2="30.576" gradientTransform="matrix(1 0 0 -1 0 90)">
			<stop  offset="0" style="stop-color:#FFFFFF"/>
			<stop  offset="0.5458" style="stop-color:#EAEAEA"/>
			<stop  offset="1" style="stop-color:#DDDDDD"/>
		</linearGradient>
		<path class="st0" d="M20.4,0c-4.1,0-7.3,3.2-7.3,7.3v52.4c0,4.1,3.2,7.3,7.3,7.3s7.3-3.2,7.3-7.3V7.3C27.7,3.2,24.5,0,20.4,0z"/>
		
			<linearGradient id="SVGID_2_" gradientUnits="userSpaceOnUse" x1="31.5908" y1="82.4842" x2="61.5642" y2="30.5691" gradientTransform="matrix(1 0 0 -1 0 90)">
			<stop  offset="0" style="stop-color:#FFFFFF"/>
			<stop  offset="0.5458" style="stop-color:#EAEAEA"/>
			<stop  offset="1" style="stop-color:#DDDDDD"/>
		</linearGradient>
		<path class="st1" d="M46.6,0c-4.1,0-7.3,3.2-7.3,7.3v52.4c0,4.1,3.2,7.3,7.3,7.3s7.3-3.2,7.3-7.3V7.3C53.9,3.2,50.5,0,46.6,0z"/>
	</g>
</g>
</svg>
